<svg width="23" height="25" viewBox="0 0 23 25" fill="none" xmlns="http://www.w3.org/2000/svg">
<path fill-rule="evenodd" clip-rule="evenodd" d="M15.7088 2.07645H7.63433C4.76758 2.07645 2.44362 4.6336 2.44362 7.78799V16.6726C2.44362 19.827 4.76758 22.3841 7.63433 22.3841H15.7088C18.5755 22.3841 20.8995 19.827 20.8995 16.6726V7.78799C20.8995 4.6336 18.5755 2.07645 15.7088 2.07645ZM7.63433 0.172607C3.81199 0.172607 0.713379 3.58213 0.713379 7.78799V16.6726C0.713379 20.8785 3.81199 24.288 7.63433 24.288H15.7088C19.5311 24.288 22.6297 20.8785 22.6297 16.6726V7.78799C22.6297 3.58213 19.5311 0.172607 15.7088 0.172607H7.63433Z" fill="black"/>
<path fill-rule="evenodd" clip-rule="evenodd" d="M11.6715 4.93222C12.1493 4.93222 12.5367 5.35841 12.5367 5.88415V11.2784H17.439C17.9168 11.2784 18.3041 11.7046 18.3041 12.2303C18.3041 12.756 17.9168 13.1822 17.439 13.1822H12.5367V18.5765C12.5367 19.1022 12.1493 19.5284 11.6715 19.5284C11.1938 19.5284 10.8064 19.1022 10.8064 18.5765V13.1822H5.90409C5.4263 13.1822 5.03897 12.756 5.03897 12.2303C5.03897 11.7046 5.4263 11.2784 5.90409 11.2784H10.8064V5.88415C10.8064 5.35841 11.1938 4.93222 11.6715 4.93222Z" fill="black"/>
</svg>
