<svg width="21" height="24" viewBox="0 0 21 24" fill="none" xmlns="http://www.w3.org/2000/svg">
<path fill-rule="evenodd" clip-rule="evenodd" d="M9.51134 17.9418C13.4929 17.9418 16.7207 14.3903 16.7207 10.0091C16.7207 5.62804 13.4929 2.07645 9.51134 2.07645C5.52974 2.07645 2.30201 5.62804 2.30201 10.0091C2.30201 14.3903 5.52974 17.9418 9.51134 17.9418ZM9.51134 19.8457C14.4485 19.8457 18.4509 15.4417 18.4509 10.0091C18.4509 4.57658 14.4485 0.172607 9.51134 0.172607C4.57415 0.172607 0.571777 4.57658 0.571777 10.0091C0.571777 15.4417 4.57415 19.8457 9.51134 19.8457Z" fill="black"/>
<path fill-rule="evenodd" clip-rule="evenodd" d="M14.6671 16.3168C15.0049 15.9451 15.5527 15.9451 15.8905 16.3168L20.6504 21.5543C20.9883 21.9261 20.9883 22.5288 20.6504 22.9005C20.3126 23.2723 19.7648 23.2723 19.427 22.9005L14.6671 17.663C14.3292 17.2913 14.3292 16.6886 14.6671 16.3168Z" fill="black"/>
</svg>
