<svg width="22" height="24" viewBox="0 0 22 24" fill="none" xmlns="http://www.w3.org/2000/svg">
<path fill-rule="evenodd" clip-rule="evenodd" d="M10.5081 0.47079C10.8388 0.137178 11.3465 0.137178 11.6772 0.47079L21.4819 10.3602C21.6607 10.5405 21.7624 10.7951 21.7624 11.0619V22.1148C21.7624 22.6405 21.3751 23.0667 20.8973 23.0667H13.688C13.2102 23.0667 12.8229 22.6405 12.8229 22.1148V16.3504C12.8229 14.6782 11.7418 13.759 10.8043 13.759C9.89928 13.759 8.78566 14.6404 8.78566 16.5567V22.1148C8.78566 22.6405 8.39834 23.0667 7.92055 23.0667H1.28797C0.810178 23.0667 0.422852 22.6405 0.422852 22.1148V11.0619C0.422852 10.7951 0.52463 10.5405 0.703388 10.3602L10.5081 0.47079ZM2.15309 11.4807V21.1629H7.05543V16.5567C7.05543 13.7238 8.82554 11.8552 10.8043 11.8552C12.7505 11.8552 14.5531 13.6861 14.5531 16.3504V21.1629H20.0322V11.4807L11.0926 2.46385L2.15309 11.4807Z" fill="black"/>
</svg>
